<mxfile host="app.diagrams.net" modified="2023-08-02T00:32:46.923Z" agent="Mozilla/5.0 (Windows NT 10.0; Win64; x64) AppleWebKit/537.36 (KHTML, like Gecko) Chrome/115.0.0.0 Safari/537.36" version="21.6.6" etag="Y1w0ypmHiNZ5uVJi-X0a" type="github">
  <diagram name="페이지-1" id="QL0-zmUJgviW_egjeWrO">
    <mxGraphModel>
      <root>
        <mxCell id="0" />
        <mxCell id="1" parent="0" />
      </root>
    </mxGraphModel>
  </diagram>
</mxfile>
